Gnomeo & Juliet 2011 SWESUB 720p BRRip XviD-ASPiRE
 
http://www.imdb.com/title/tt0377981/

Handling:

Trädgårdstomtarna Gnomeo och Juliet har lika många hinder att övervinna som deras 
namne, Romeo och Juliet när de fångas upp i en grannfejd. Kan detta unga par hitta 
sann lycka bland rosa plastflamingos och gräsklipparrace?

iNFO:

Genre: Animerat, Äventyr, Komedi, Familj, Fantasy, Romantik
Regi: Kelly Asbury
Medverkande: James McAvoy, Emily Blunt, Maggie Smith, Michael Caine, Matt Lucas
Produktionsland: USA, England
Språk: Engelska
Text: Svenska

General:
Format                           : AVI
Format/Info                      : Audio Video Interleave
Format profile                   : OpenDML
File size                        : 2.21 GiB
Duration                         : 1h 23mn
Overall bit rate                 : 3 767 Kbps

Video:
ID                               : 0
Format                           : MPEG-4 Visual
Format profile                   : Advanced Simple@L5
Format settings, BVOP            : 1
Format settings, QPel            : No
Format settings, GMC             : No warppoints
Format settings, Matrix          : Default (H.263)
Muxing mode                      : Packed bitstream
Codec ID                         : XVID
Codec ID/Hint                    : XviD
Duration                         : 1h 23mn
Bit rate                         : 3 309 Kbps
Width                            : 1 280 pixels
Height                           : 688 pixels
Display aspect ratio             : 1.860
Frame rate                       : 23.976 fps
Color space                      : YUV
Chroma subsampling               : 4:2:0
Bit depth                        : 8 bits
Scan type                        : Progressive
Compression mode                 : Lossy
Bits/(Pixel*Frame)               : 0.157
Stream size                      : 1.94 GiB (88%)
Writing library                  : XviD 62

Audio:
ID                               : 1
Format                           : AC-3
Format/Info                      : Audio Coding 3
Mode extension                   : CM (complete main)
Codec ID                         : 2000
Duration                         : 1h 23mn
Bit rate mode                    : Constant
Bit rate                         : 448 Kbps
Channel(s)                       : 6 channels
Channel positions                : Front: L C R, Side: L R, LFE
Sampling rate                    : 48.0 KHz
Bit depth                        : 16 bits
Compression mode                 : Lossy
Stream size                      : 269 MiB (12%)
Alignment                        : Split accross interleaves
Interleave, duration             : 64 ms (1.53 video frames)
Interleave, preload duration     : 500 ms

ASPiRE